<svg width="219" height="259" viewBox="0 0 219 259" fill="none" xmlns="http://www.w3.org/2000/svg">
<path d="M9 33.3333C9 14.9238 23.9238 0 42.3333 0H175.667C194.076 0 209 14.9238 209 33.3333V166.667C209 185.076 194.076 200 175.667 200H42.3333C23.9238 200 9 185.076 9 166.667V33.3333Z" fill="#34C889"/>
<path d="M197.469 8.11849C204.531 14.2306 209 23.26 209 33.3333V166.667C209 185.076 194.076 200 175.667 200H42.3333C23.9238 200 9 185.076 9 166.667V149.821C105.131 146.141 183.552 85.908 197.469 8.11849Z" fill="#7C4DFF"/>
<path d="M0.529829 258V234.727H9.43892C11.1207 234.727 12.5185 234.992 13.6321 235.523C14.7533 236.045 15.5904 236.761 16.1435 237.67C16.7041 238.58 16.9844 239.61 16.9844 240.761C16.9844 241.708 16.8026 242.519 16.4389 243.193C16.0753 243.86 15.5866 244.402 14.973 244.818C14.3594 245.235 13.6738 245.534 12.9162 245.716V245.943C13.742 245.989 14.5336 246.242 15.2912 246.705C16.0563 247.159 16.6813 247.803 17.1662 248.636C17.651 249.47 17.8935 250.477 17.8935 251.659C17.8935 252.864 17.6018 253.947 17.0185 254.909C16.4351 255.864 15.5563 256.617 14.3821 257.17C13.2079 257.723 11.7306 258 9.95028 258H0.529829ZM4.74574 254.477H9.27983C10.8101 254.477 11.9124 254.186 12.5866 253.602C13.2685 253.011 13.6094 252.254 13.6094 251.33C13.6094 250.64 13.4389 250.019 13.098 249.466C12.7571 248.905 12.2723 248.466 11.6435 248.148C11.0147 247.822 10.2647 247.659 9.39347 247.659H4.74574V254.477ZM4.74574 244.625H8.91619C9.64347 244.625 10.2988 244.492 10.8821 244.227C11.4654 243.955 11.9238 243.572 12.2571 243.08C12.598 242.58 12.7685 241.989 12.7685 241.307C12.7685 240.405 12.4503 239.663 11.8139 239.08C11.1851 238.496 10.2495 238.205 9.0071 238.205H4.74574V244.625Z" fill="black"/>
<path d="M26.402 258.352C25.2959 258.352 24.2997 258.155 23.4134 257.761C22.5346 257.36 21.8376 256.769 21.3224 255.989C20.8149 255.208 20.5611 254.246 20.5611 253.102C20.5611 252.117 20.7429 251.303 21.1065 250.659C21.4702 250.015 21.9664 249.5 22.5952 249.114C23.224 248.727 23.9323 248.436 24.7202 248.239C25.5156 248.034 26.3376 247.886 27.1861 247.795C28.2088 247.689 29.0384 247.595 29.6747 247.511C30.3111 247.42 30.7732 247.284 31.0611 247.102C31.3565 246.913 31.5043 246.621 31.5043 246.227V246.159C31.5043 245.303 31.2505 244.64 30.7429 244.17C30.2353 243.701 29.5043 243.466 28.5497 243.466C27.5421 243.466 26.7429 243.686 26.152 244.125C25.5687 244.564 25.1747 245.083 24.9702 245.682L21.1293 245.136C21.4323 244.076 21.9323 243.189 22.6293 242.477C23.3262 241.758 24.1785 241.22 25.1861 240.864C26.1937 240.5 27.3073 240.318 28.527 240.318C29.3679 240.318 30.205 240.417 31.0384 240.614C31.8717 240.811 32.633 241.136 33.3224 241.591C34.0118 242.038 34.5649 242.648 34.9815 243.42C35.4058 244.193 35.6179 245.159 35.6179 246.318V258H31.6634V255.602H31.527C31.277 256.087 30.9247 256.542 30.4702 256.966C30.0232 257.383 29.4588 257.72 28.777 257.977C28.1027 258.227 27.3111 258.352 26.402 258.352ZM27.4702 255.33C28.2959 255.33 29.0118 255.167 29.6179 254.841C30.224 254.508 30.6899 254.068 31.0156 253.523C31.349 252.977 31.5156 252.383 31.5156 251.739V249.682C31.3868 249.788 31.1671 249.886 30.8565 249.977C30.5535 250.068 30.2126 250.148 29.8338 250.216C29.455 250.284 29.08 250.345 28.7088 250.398C28.3376 250.451 28.0156 250.496 27.7429 250.534C27.1293 250.617 26.58 250.754 26.0952 250.943C25.6103 251.133 25.2277 251.398 24.9474 251.739C24.6671 252.072 24.527 252.504 24.527 253.034C24.527 253.792 24.8035 254.364 25.3565 254.75C25.9096 255.136 26.6141 255.33 27.4702 255.33Z" fill="black"/>
<path d="M43.8679 234.727V258H39.7543V234.727H43.8679Z" fill="black"/>
<path d="M53.1207 258.352C52.0147 258.352 51.0185 258.155 50.1321 257.761C49.2533 257.36 48.5563 256.769 48.0412 255.989C47.5336 255.208 47.2798 254.246 47.2798 253.102C47.2798 252.117 47.4616 251.303 47.8253 250.659C48.1889 250.015 48.6851 249.5 49.3139 249.114C49.9427 248.727 50.651 248.436 51.4389 248.239C52.2344 248.034 53.0563 247.886 53.9048 247.795C54.9276 247.689 55.7571 247.595 56.3935 247.511C57.0298 247.42 57.492 247.284 57.7798 247.102C58.0753 246.913 58.223 246.621 58.223 246.227V246.159C58.223 245.303 57.9692 244.64 57.4616 244.17C56.9541 243.701 56.223 243.466 55.2685 243.466C54.2609 243.466 53.4616 243.686 52.8707 244.125C52.2874 244.564 51.8935 245.083 51.6889 245.682L47.848 245.136C48.151 244.076 48.651 243.189 49.348 242.477C50.045 241.758 50.8973 241.22 51.9048 240.864C52.9124 240.5 54.026 240.318 55.2457 240.318C56.0866 240.318 56.9238 240.417 57.7571 240.614C58.5904 240.811 59.3518 241.136 60.0412 241.591C60.7306 242.038 61.2836 242.648 61.7003 243.42C62.1245 244.193 62.3366 245.159 62.3366 246.318V258H58.3821V255.602H58.2457C57.9957 256.087 57.6435 256.542 57.1889 256.966C56.742 257.383 56.1776 257.72 55.4957 257.977C54.8215 258.227 54.0298 258.352 53.1207 258.352ZM54.1889 255.33C55.0147 255.33 55.7306 255.167 56.3366 254.841C56.9427 254.508 57.4086 254.068 57.7344 253.523C58.0677 252.977 58.2344 252.383 58.2344 251.739V249.682C58.1056 249.788 57.8859 249.886 57.5753 249.977C57.2723 250.068 56.9313 250.148 56.5526 250.216C56.1738 250.284 55.7988 250.345 55.4276 250.398C55.0563 250.451 54.7344 250.496 54.4616 250.534C53.848 250.617 53.2988 250.754 52.8139 250.943C52.3291 251.133 51.9465 251.398 51.6662 251.739C51.3859 252.072 51.2457 252.504 51.2457 253.034C51.2457 253.792 51.5223 254.364 52.0753 254.75C52.6283 255.136 53.3329 255.33 54.1889 255.33Z" fill="black"/>
<path d="M70.5866 247.773V258H66.473V240.545H70.4048V243.511H70.6094C71.0109 242.534 71.651 241.758 72.5298 241.182C73.4162 240.606 74.5109 240.318 75.8139 240.318C77.0185 240.318 78.0677 240.576 78.9616 241.091C79.8632 241.606 80.5601 242.352 81.0526 243.33C81.5526 244.307 81.7988 245.492 81.7912 246.886V258H77.6776V247.523C77.6776 246.356 77.3745 245.443 76.7685 244.784C76.17 244.125 75.3404 243.795 74.2798 243.795C73.5601 243.795 72.92 243.955 72.3594 244.273C71.8063 244.583 71.3707 245.034 71.0526 245.625C70.742 246.216 70.5866 246.932 70.5866 247.773Z" fill="black"/>
<path d="M93.5866 258.341C91.8442 258.341 90.348 257.958 89.098 257.193C87.8556 256.428 86.8973 255.371 86.223 254.023C85.5563 252.667 85.223 251.106 85.223 249.341C85.223 247.568 85.5639 246.004 86.2457 244.648C86.9276 243.284 87.8897 242.223 89.1321 241.466C90.3821 240.701 91.8594 240.318 93.5639 240.318C94.9806 240.318 96.2344 240.58 97.3253 241.102C98.4238 241.617 99.2988 242.348 99.9503 243.295C100.602 244.235 100.973 245.333 101.064 246.591H97.1321C96.973 245.75 96.5942 245.049 95.9957 244.489C95.4048 243.92 94.6132 243.636 93.6207 243.636C92.7798 243.636 92.0412 243.864 91.4048 244.318C90.7685 244.765 90.2723 245.409 89.9162 246.25C89.5677 247.091 89.3935 248.098 89.3935 249.273C89.3935 250.462 89.5677 251.485 89.9162 252.341C90.2647 253.189 90.7533 253.845 91.3821 254.307C92.0185 254.761 92.7647 254.989 93.6207 254.989C94.2268 254.989 94.7685 254.875 95.2457 254.648C95.7306 254.413 96.1359 254.076 96.4616 253.636C96.7874 253.197 97.0109 252.663 97.1321 252.034H101.064C100.965 253.269 100.602 254.364 99.973 255.318C99.3442 256.265 98.4882 257.008 97.4048 257.545C96.3215 258.076 95.0488 258.341 93.5866 258.341Z" fill="black"/>
<path d="M104.442 258V240.545H108.555V258H104.442ZM106.51 238.068C105.858 238.068 105.298 237.852 104.828 237.42C104.358 236.981 104.124 236.455 104.124 235.841C104.124 235.22 104.358 234.693 104.828 234.261C105.298 233.822 105.858 233.602 106.51 233.602C107.169 233.602 107.73 233.822 108.192 234.261C108.661 234.693 108.896 235.22 108.896 235.841C108.896 236.455 108.661 236.981 108.192 237.42C107.73 237.852 107.169 238.068 106.51 238.068Z" fill="black"/>
<path d="M128.558 242.159C128.369 241.545 128.107 240.996 127.774 240.511C127.448 240.019 127.054 239.598 126.592 239.25C126.138 238.902 125.615 238.64 125.024 238.466C124.433 238.284 123.789 238.193 123.092 238.193C121.842 238.193 120.729 238.508 119.751 239.136C118.774 239.765 118.005 240.689 117.445 241.909C116.892 243.121 116.615 244.598 116.615 246.341C116.615 248.098 116.892 249.587 117.445 250.807C117.998 252.027 118.767 252.955 119.751 253.591C120.736 254.22 121.88 254.534 123.183 254.534C124.365 254.534 125.388 254.307 126.251 253.852C127.123 253.398 127.793 252.754 128.263 251.92C128.732 251.08 128.967 250.095 128.967 248.966L129.922 249.114H123.604V245.818H133.047V248.614C133.047 250.606 132.623 252.33 131.774 253.784C130.926 255.239 129.759 256.36 128.274 257.148C126.789 257.928 125.085 258.318 123.161 258.318C121.017 258.318 119.134 257.837 117.513 256.875C115.899 255.905 114.638 254.53 113.729 252.75C112.827 250.962 112.376 248.841 112.376 246.386C112.376 244.508 112.642 242.83 113.172 241.352C113.71 239.875 114.46 238.621 115.422 237.591C116.384 236.553 117.513 235.765 118.808 235.227C120.104 234.682 121.513 234.409 123.036 234.409C124.323 234.409 125.524 234.598 126.638 234.977C127.751 235.348 128.74 235.879 129.604 236.568C130.475 237.258 131.191 238.076 131.751 239.023C132.312 239.97 132.679 241.015 132.854 242.159H128.558Z" fill="black"/>
<path d="M141.964 258.352C140.858 258.352 139.862 258.155 138.976 257.761C138.097 257.36 137.4 256.769 136.885 255.989C136.377 255.208 136.124 254.246 136.124 253.102C136.124 252.117 136.305 251.303 136.669 250.659C137.033 250.015 137.529 249.5 138.158 249.114C138.786 248.727 139.495 248.436 140.283 248.239C141.078 248.034 141.9 247.886 142.749 247.795C143.771 247.689 144.601 247.595 145.237 247.511C145.874 247.42 146.336 247.284 146.624 247.102C146.919 246.913 147.067 246.621 147.067 246.227V246.159C147.067 245.303 146.813 244.64 146.305 244.17C145.798 243.701 145.067 243.466 144.112 243.466C143.105 243.466 142.305 243.686 141.714 244.125C141.131 244.564 140.737 245.083 140.533 245.682L136.692 245.136C136.995 244.076 137.495 243.189 138.192 242.477C138.889 241.758 139.741 241.22 140.749 240.864C141.756 240.5 142.87 240.318 144.089 240.318C144.93 240.318 145.768 240.417 146.601 240.614C147.434 240.811 148.196 241.136 148.885 241.591C149.574 242.038 150.127 242.648 150.544 243.42C150.968 244.193 151.18 245.159 151.18 246.318V258H147.226V255.602H147.089C146.839 256.087 146.487 256.542 146.033 256.966C145.586 257.383 145.021 257.72 144.339 257.977C143.665 258.227 142.874 258.352 141.964 258.352ZM143.033 255.33C143.858 255.33 144.574 255.167 145.18 254.841C145.786 254.508 146.252 254.068 146.578 253.523C146.911 252.977 147.078 252.383 147.078 251.739V249.682C146.949 249.788 146.73 249.886 146.419 249.977C146.116 250.068 145.775 250.148 145.396 250.216C145.018 250.284 144.643 250.345 144.271 250.398C143.9 250.451 143.578 250.496 143.305 250.534C142.692 250.617 142.143 250.754 141.658 250.943C141.173 251.133 140.79 251.398 140.51 251.739C140.23 252.072 140.089 252.504 140.089 253.034C140.089 253.792 140.366 254.364 140.919 254.75C141.472 255.136 142.177 255.33 143.033 255.33Z" fill="black"/>
<path d="M169.112 245.159L165.362 245.568C165.256 245.189 165.071 244.833 164.805 244.5C164.548 244.167 164.199 243.898 163.76 243.693C163.321 243.489 162.783 243.386 162.146 243.386C161.29 243.386 160.571 243.572 159.987 243.943C159.411 244.314 159.127 244.795 159.135 245.386C159.127 245.894 159.313 246.307 159.692 246.625C160.078 246.943 160.714 247.205 161.601 247.409L164.578 248.045C166.23 248.402 167.457 248.966 168.26 249.739C169.071 250.511 169.48 251.523 169.487 252.773C169.48 253.871 169.158 254.841 168.521 255.682C167.893 256.515 167.018 257.167 165.896 257.636C164.775 258.106 163.487 258.341 162.033 258.341C159.896 258.341 158.177 257.894 156.874 257C155.571 256.098 154.794 254.845 154.544 253.239L158.555 252.852C158.737 253.64 159.124 254.235 159.714 254.636C160.305 255.038 161.074 255.239 162.021 255.239C162.999 255.239 163.783 255.038 164.374 254.636C164.972 254.235 165.271 253.739 165.271 253.148C165.271 252.648 165.078 252.235 164.692 251.909C164.313 251.583 163.722 251.333 162.919 251.159L159.942 250.534C158.268 250.186 157.029 249.598 156.226 248.773C155.423 247.939 155.025 246.886 155.033 245.614C155.025 244.538 155.317 243.606 155.908 242.818C156.506 242.023 157.336 241.409 158.396 240.977C159.464 240.538 160.696 240.318 162.089 240.318C164.135 240.318 165.745 240.754 166.919 241.625C168.101 242.496 168.832 243.674 169.112 245.159Z" fill="black"/>
<path d="M181.595 240.545V243.727H171.561V240.545H181.595ZM174.038 236.364H178.152V252.75C178.152 253.303 178.235 253.727 178.402 254.023C178.576 254.311 178.803 254.508 179.084 254.614C179.364 254.72 179.675 254.773 180.016 254.773C180.273 254.773 180.508 254.754 180.72 254.716C180.94 254.678 181.107 254.644 181.22 254.614L181.913 257.83C181.694 257.905 181.379 257.989 180.97 258.08C180.569 258.17 180.076 258.223 179.493 258.239C178.463 258.269 177.535 258.114 176.709 257.773C175.883 257.424 175.228 256.886 174.743 256.159C174.266 255.432 174.031 254.523 174.038 253.432V236.364Z" fill="black"/>
<path d="M192.462 258.341C190.757 258.341 189.28 257.966 188.03 257.216C186.78 256.466 185.81 255.417 185.121 254.068C184.439 252.72 184.098 251.144 184.098 249.341C184.098 247.538 184.439 245.958 185.121 244.602C185.81 243.246 186.78 242.193 188.03 241.443C189.28 240.693 190.757 240.318 192.462 240.318C194.166 240.318 195.643 240.693 196.893 241.443C198.143 242.193 199.109 243.246 199.791 244.602C200.481 245.958 200.825 247.538 200.825 249.341C200.825 251.144 200.481 252.72 199.791 254.068C199.109 255.417 198.143 256.466 196.893 257.216C195.643 257.966 194.166 258.341 192.462 258.341ZM192.484 255.045C193.409 255.045 194.181 254.792 194.803 254.284C195.424 253.769 195.886 253.08 196.189 252.216C196.5 251.352 196.655 250.39 196.655 249.33C196.655 248.261 196.5 247.295 196.189 246.432C195.886 245.561 195.424 244.867 194.803 244.352C194.181 243.837 193.409 243.58 192.484 243.58C191.537 243.58 190.75 243.837 190.121 244.352C189.5 244.867 189.034 245.561 188.723 246.432C188.42 247.295 188.268 248.261 188.268 249.33C188.268 250.39 188.42 251.352 188.723 252.216C189.034 253.08 189.5 253.769 190.121 254.284C190.75 254.792 191.537 255.045 192.484 255.045Z" fill="black"/>
<path d="M218.112 245.159L214.362 245.568C214.256 245.189 214.071 244.833 213.805 244.5C213.548 244.167 213.199 243.898 212.76 243.693C212.321 243.489 211.783 243.386 211.146 243.386C210.29 243.386 209.571 243.572 208.987 243.943C208.411 244.314 208.127 244.795 208.135 245.386C208.127 245.894 208.313 246.307 208.692 246.625C209.078 246.943 209.714 247.205 210.601 247.409L213.578 248.045C215.23 248.402 216.457 248.966 217.26 249.739C218.071 250.511 218.48 251.523 218.487 252.773C218.48 253.871 218.158 254.841 217.521 255.682C216.893 256.515 216.018 257.167 214.896 257.636C213.775 258.106 212.487 258.341 211.033 258.341C208.896 258.341 207.177 257.894 205.874 257C204.571 256.098 203.794 254.845 203.544 253.239L207.555 252.852C207.737 253.64 208.124 254.235 208.714 254.636C209.305 255.038 210.074 255.239 211.021 255.239C211.999 255.239 212.783 255.038 213.374 254.636C213.972 254.235 214.271 253.739 214.271 253.148C214.271 252.648 214.078 252.235 213.692 251.909C213.313 251.583 212.722 251.333 211.919 251.159L208.942 250.534C207.268 250.186 206.029 249.598 205.226 248.773C204.423 247.939 204.025 246.886 204.033 245.614C204.025 244.538 204.317 243.606 204.908 242.818C205.506 242.023 206.336 241.409 207.396 240.977C208.464 240.538 209.696 240.318 211.089 240.318C213.135 240.318 214.745 240.754 215.919 241.625C217.101 242.496 217.832 243.674 218.112 245.159Z" fill="black"/>
</svg>
